HIERARCHY
ROOT Hips
{
    OFFSET 0.000000 0.000000 0.000000
    CHANNELS 6 Xposition Yposition Zposition Zrotation Xrotation Yrotation
    JOINT Spine
    {
        OFFSET -0.000000 0.081343 0.000000
        CHANNELS 3 Zrotation Xrotation Yrotation
        JOINT Spine1
        {
            OFFSET -0.000000 0.243280 0.000000
            CHANNELS 3 Zrotation Xrotation Yrotation
            JOINT Neck
            {
                OFFSET -0.000000 0.242281 0.022026
                CHANNELS 3 Zrotation Xrotation Yrotation
                JOINT Head
                {
                    OFFSET -0.000000 0.149025 -0.021289
                    CHANNELS 3 Zrotation Xrotation Yrotation
                    End Site
                    {
                        OFFSET -0.000000 0.198396 0.000000
                    }
                }
            }
            JOINT LeftShoulder
            {
                OFFSET 0.039707 0.224479 -0.002125
                CHANNELS 3 Zrotation Xrotation Yrotation
                JOINT LeftArm
                {
                    OFFSET 0.116942 0.000000 0.000000
                    CHANNELS 3 Zrotation Xrotation Yrotation
                    JOINT LeftForeArm
                    {
                        OFFSET 0.282002 0.000000 0.000000
                        CHANNELS 3 Zrotation Xrotation Yrotation
                        JOINT LeftHand
                        {
                            OFFSET 0.358743 0.000000 0.000000
                            CHANNELS 3 Zrotation Xrotation Yrotation
                            End Site
                            {
                                OFFSET 0.148797 0.000000 0.000000
                            }
                        }
                    }
                }
            }
            JOINT RightShoulder
            {
                OFFSET -0.039404 0.224479 -0.002125
                CHANNELS 3 Zrotation Xrotation Yrotation
                JOINT RightArm
                {
                    OFFSET -0.116942 0.000000 0.000000
                    CHANNELS 3 Zrotation Xrotation Yrotation
                    JOINT RightForeArm
                    {
                        OFFSET -0.282002 0.000000 0.000000
                        CHANNELS 3 Zrotation Xrotation Yrotation
                        JOINT RightHand
                        {
                            OFFSET -0.358743 0.000000 0.000000
                            CHANNELS 3 Zrotation Xrotation Yrotation
                            End Site
                            {
                                OFFSET -0.148797 0.000000 0.000000
                            }
                        }
                    }
                }
            }
        }
    }
    JOINT LeftUpLeg
    {
        OFFSET 0.099198 0.000000 0.000000
        CHANNELS 3 Zrotation Xrotation Yrotation
        JOINT LeftLeg
        {
            OFFSET -0.000000 -0.332973 0.000000
            CHANNELS 3 Zrotation Xrotation Yrotation
            JOINT LeftFoot
            {
                OFFSET -0.000000 -0.491254 0.000000
                CHANNELS 3 Zrotation Xrotation Yrotation
                JOINT LeftToeBase
                {
                    OFFSET -0.000000 -0.064479 0.148797
                    CHANNELS 3 Zrotation Xrotation Yrotation
                    End Site
                    {
                        OFFSET -0.000000 0.000000 0.039679
                    }
                }
            }
        }
    }
    JOINT RightUpLeg
    {
        OFFSET -0.099198 0.000000 0.000000
        CHANNELS 3 Zrotation Xrotation Yrotation
        JOINT RightLeg
        {
            OFFSET -0.000000 -0.332973 0.000000
            CHANNELS 3 Zrotation Xrotation Yrotation
            JOINT RightFoot
            {
                OFFSET -0.000000 -0.491254 0.000000
                CHANNELS 3 Zrotation Xrotation Yrotation
                JOINT RightToeBase
                {
                    OFFSET -0.000000 -0.064479 0.148797
                    CHANNELS 3 Zrotation Xrotation Yrotation
                    End Site
                    {
                        OFFSET -0.000000 0.000000 0.039679
                    }
                }
            }
        }
    }
}
MOTION
Frames:    8
Frame Time:    0.010000
0.007732    0.873979    0.128174    4.879917    -1.685154    68.253174    2.449986    7.562625    4.024078    4.016317    0.827637    1.365477    -3.315398    19.407143    4.002337    -5.248706    -10.729635    2.838668    -14.011651    28.682070    7.852643    -47.132534    14.243837    -26.864113    29.525875    -52.025784    -84.203751    58.771278    -23.585388    15.896514    7.000924    21.894272    7.305200    38.292194    17.425400    20.887449    -26.619654    -40.603867    71.429123    -22.349154    -23.281792    -4.404869    13.475154    -25.284863    7.252353    -8.493167    37.323582    -2.264379    7.815221    -0.968691    13.947158    0.000000    0.000000    0.000000    -1.379150    -0.155573    -11.910134    -1.097049    23.262138    15.711212    2.116029    -17.340973    -8.550355    0.000000    0.000000    0.000000    
0.009307    0.873873    0.128087    4.789548    -1.475075    68.631218    2.103446    7.319316    4.076653    4.041851    0.868241    1.372423    -3.410093    19.481915    3.916909    -5.204632    -10.822653    2.750648    -14.153444    28.479633    7.876029    -47.187138    14.050385    -27.129488    30.223475    -52.687328    -84.472404    59.368107    -23.669111    15.937119    6.919086    21.721746    7.808184    38.578796    21.103094    21.548195    -35.773403    -44.377804    64.120972    -19.790693    -24.420582    -5.383846    13.888552    -25.183670    7.401022    -8.805242    36.511921    -1.707182    7.776878    -1.105240    13.113570    0.000000    0.000000    0.000000    -1.498957    -0.107382    -11.919808    -1.085366    23.164038    15.533383    2.155437    -17.521282    -8.701026    0.000000    0.000000    0.000000    
0.011609    0.874065    0.127722    4.679771    -1.369895    69.088112    2.031931    7.319978    4.390566    3.990276    0.523126    1.487859    -4.508683    19.256384    3.669490    -3.621479    -10.314682    2.855843    -14.155208    28.648739    7.647604    -47.052399    14.189664    -27.599365    31.368719    -53.571754    -84.205193    59.740086    -23.897823    16.119335    6.837288    21.542135    7.341904    38.717930    21.202305    22.320543    -35.838627    -45.585182    64.750961    -22.321096    -25.653902    -4.769603    14.261310    -25.116846    7.699346    -8.901530    35.552708    -1.398160    8.216348    -0.591474    12.176627    0.000000    0.000000    0.000000    -1.618050    0.077189    -12.169074    -1.026830    22.991426    15.542983    3.421334    -17.344536    -8.964582    0.000000    0.000000    0.000000    
0.014075    0.874193    0.127415    4.617630    -1.295274    69.598991    2.035544    7.300280    4.438562    3.739378    0.308172    1.511966    -4.394901    19.302275    3.503767    -3.817663    -10.297174    2.640077    -14.208560    28.720131    7.676684    -46.979015    14.332848    -28.017908    32.498840    -54.469612    -83.949562    60.064144    -24.205185    16.273104    6.813293    21.551138    7.463889    38.864777    22.334564    23.019112    -40.237854    -46.990215    61.355991    -20.271160    -26.297216    -4.384662    14.611183    -25.045076    8.106827    -8.964460    34.607662    -1.202139    7.931714    -0.243668    12.430257    0.000000    0.000000    0.000000    -1.611104    0.253888    -12.322785    -2.021075    22.576086    18.184608    3.691357    -17.530699    -8.994327    0.000000    0.000000    0.000000    
0.016633    0.874295    0.127095    4.551498    -1.230074    70.113541    1.892030    7.146423    4.453987    3.672319    0.254220    1.515204    -4.410303    19.595152    3.404646    -3.861956    -10.605515    2.503801    -14.399055    28.560188    7.593320    -47.037880    14.377779    -28.156942    33.440338    -55.180420    -83.928833    60.344162    -24.377089    16.293556    6.734960    21.876667    8.245193    39.095562    17.282494    22.537462    -35.382675    -44.004269    66.011162    -25.222649    -23.546648    -3.449437    15.030542    -24.931784    8.836150    -8.996335    33.790577    -1.330625    8.724955    0.247067    12.881001    0.000000    0.000000    0.000000    -1.633326    0.507507    -12.509546    -2.004999    22.373657    17.705582    3.858076    -17.562754    -8.829800    0.000000    0.000000    0.000000    
0.019050    0.874642    0.127244    4.265933    -1.197407    70.845589    1.925302    6.818211    4.457060    3.633281    0.239835    1.515601    -4.747303    19.400476    3.184047    -3.546348    -10.406237    2.351759    -14.480786    28.861513    7.527051    -46.842129    14.532056    -28.851088    34.885761    -56.122906    -83.225739    60.666679    -24.707617    16.519745    6.828593    21.765684    7.606000    38.882969    18.706240    23.811745    -38.967243    -45.519733    63.291950    -25.474745    -24.258738    -3.643970    15.440308    -25.082901    8.608330    -9.440305    32.604950    -0.341507    7.320895    -0.056426    13.919155    0.000000    0.000000    0.000000    -1.492582    0.677784    -12.560498    -1.874572    22.020685    17.104446    4.104508    -17.442642    -8.871112    0.000000    0.000000    0.000000    
0.022973    0.874013    0.127500    4.534046    -0.944278    71.774757    1.445373    6.745044    4.223662    3.692008    0.371451    1.423782    -4.261496    19.549829    3.177039    -4.620898    -10.628054    2.096036    -14.598886    28.830746    7.447125    -46.753662    14.730059    -29.203890    36.651722    -56.810867    -82.217560    61.857082    -24.379547    16.733360    6.444037    21.763884    8.312526    40.052372    17.942776    23.192759    -37.850456    -46.780415    65.846382    -17.261551    -26.135935    -0.607417    15.292324    -24.753708    8.281484    -9.729281    31.477898    0.324300    6.636461    -0.281079    14.579297    0.000000    0.000000    0.000000    -1.794179    1.513936    -13.340255    -0.926513    21.868553    14.158971    2.918641    -17.980183    -8.792850    0.000000    0.000000    0.000000    
0.023932    0.874369    0.127094    4.372351    -1.022414    71.913910    1.342199    6.847937    4.430017    3.637580    0.206514    1.496308    -4.451890    19.563437    3.141366    -4.321681    -10.805791    2.115543    -14.832154    28.686754    7.516263    -46.812160    14.760438    -29.501196    37.801094    -57.425217    -81.856323    62.516350    -24.359966    16.790932    6.834133    21.588425    8.194071    39.269630    18.135193    23.981083    -39.122627    -47.379726    64.846436    -18.276896    -26.471340    -0.952008    15.875916    -24.762043    9.097421    -9.886125    30.319817    0.900393    10.688203    3.223706    15.750034    0.000000    0.000000    0.000000    -1.549426    1.297847    -12.797637    -0.991424    22.029270    13.482365    3.103061    -17.728148    -8.769650    0.000000    0.000000    0.000000    
